<?xml version="1.0" standalone="no"?><!DOCTYPE svg PUBLIC "-//W3C//DTD SVG 1.1//EN" "http://www.w3.org/Graphics/SVG/1.1/DTD/svg11.dtd"><svg t="1578323900984" class="icon" viewBox="0 0 1024 1024" version="1.1" xmlns="http://www.w3.org/2000/svg" p-id="2624" xmlns:xlink="http://www.w3.org/1999/xlink" width="200" height="200"><defs><style type="text/css"></style></defs><path d="M298.3 431.3m-38.9 0a38.9 38.9 0 1 0 77.8 0 38.9 38.9 0 1 0-77.8 0Z" fill="#6893FF" p-id="2625"></path><path d="M725.7 431.3m-38.9 0a38.9 38.9 0 1 0 77.8 0 38.9 38.9 0 1 0-77.8 0Z" fill="#6893FF" p-id="2626"></path><path d="M746.4 353.6c-14.3 0-25.9-11.6-25.9-25.9 0-121.4-93.5-220.2-208.5-220.2-21 0-41.8 3.3-61.7 9.8-13.6 4.4-28.2-3-32.7-16.6-4.4-13.6 3-28.2 16.6-32.7 25.1-8.2 51.2-12.4 77.8-12.4 143.5 0 260.3 122 260.3 272 0 14.4-11.6 26-25.9 26zM383.5 147.8c-8.2 0-16.3-3.9-21.3-11.2-8.1-11.8-5.2-27.9 6.6-36l3.1-2.1c11.9-7.9 28-4.8 35.9 7.1 8 11.9 4.8 28-7.1 35.9l-2.4 1.7c-4.6 3.1-9.8 4.6-14.8 4.6zM277.6 353.6c-14.3 0-25.9-11.6-25.9-25.9 0-64.8 22.2-127.6 62.5-176.8 9.1-11.1 25.4-12.7 36.5-3.6 11.1 9.1 12.7 25.4 3.6 36.5-32.7 40-50.7 91.1-50.7 144-0.1 14.2-11.7 25.8-26 25.8z" fill="#6893FF" p-id="2627"></path><path d="M593.7 760.3H208c-14.3 0-25.9-11.6-25.9-25.9s11.6-25.9 25.9-25.9h385.6c14.3 0 25.9 11.6 25.9 25.9s-11.5 25.9-25.8 25.9z" fill="#39DB8F" p-id="2628"></path><path d="M808.3 760.3H701c-14.3 0-25.9-11.6-25.9-25.9s11.6-25.9 25.9-25.9h107.3c14.3 0 25.9 11.6 25.9 25.9s-11.6 25.9-25.9 25.9z" fill="#FF6E90" p-id="2629"></path><path d="M760.8 858.7H263.2c-37 0-69-25.5-76.2-60.6l-83.4-406.6c-4.4-21.6 1.1-43.9 15.2-61.2 14.8-18.2 37.1-28.6 61-28.6h664.3c23.9 0 46.2 10.4 61 28.6 14.1 17.3 19.6 39.6 15.2 61.2L837 798.2c-7.2 35.1-39.3 60.5-76.2 60.5z m-581-505.1c-8.3 0-15.9 3.5-20.9 9.6-2.5 3-6.4 9.4-4.6 18.1l83.4 406.6c2.3 11.1 13 19.1 25.5 19.1h497.5c12.5 0 23.2-8.1 25.5-19.1l83.4-406.6c1.8-8.6-2.1-15-4.6-18.1-5-6.1-12.6-9.6-20.9-9.6H179.8z" fill="#6893FF" p-id="2630"></path></svg>