<?xml version="1.0" standalone="no"?><svg xmlns="http://www.w3.org/2000/svg" viewBox="0 0 1440 320"><path fill="#10af91" fill-opacity="1" d="M0,256L26.7,266.7C53.3,277,107,299,160,304C213.3,309,267,299,320,266.7C373.3,235,427,181,480,133.3C533.3,85,587,43,640,64C693.3,85,747,171,800,224C853.3,277,907,299,960,293.3C1013.3,288,1067,256,1120,229.3C1173.3,203,1227,181,1280,165.3C1333.3,149,1387,139,1413,133.3L1440,128L1440,0L1413.3,0C1386.7,0,1333,0,1280,0C1226.7,0,1173,0,1120,0C1066.7,0,1013,0,960,0C906.7,0,853,0,800,0C746.7,0,693,0,640,0C586.7,0,533,0,480,0C426.7,0,373,0,320,0C266.7,0,213,0,160,0C106.7,0,53,0,27,0L0,0Z"></path></svg>