<?xml version="1.0" standalone="no"?><!DOCTYPE svg PUBLIC "-//W3C//DTD SVG 1.1//EN" "http://www.w3.org/Graphics/SVG/1.1/DTD/svg11.dtd"><svg t="1577594210822" class="icon" viewBox="0 0 1024 1024" version="1.1" xmlns="http://www.w3.org/2000/svg" p-id="1467" xmlns:xlink="http://www.w3.org/1999/xlink" width="200" height="200"><defs><style type="text/css"></style></defs><path d="M464.2816 490.7008H243.3024c-43.008 0-77.824-34.816-77.824-77.824v-169.5744c0-43.008 34.816-77.824 77.824-77.824h169.5744c43.008 0 77.824 34.816 77.824 77.824v220.7744c0 14.7456-11.8784 26.624-26.4192 26.624zM243.3024 218.7264c-13.5168 0-24.576 11.0592-24.576 24.576v169.5744c0 13.5168 11.0592 24.576 24.576 24.576h194.1504v-194.1504c0-13.5168-11.0592-24.576-24.576-24.576h-169.5744z" fill="#2F4072" p-id="1468"></path><path d="M757.76 461.824h-164.864c-16.9984 0-30.72-13.7216-30.72-30.72V266.24c0-39.5264 32.1536-71.68 71.68-71.68H757.76c39.5264 0 71.68 32.1536 71.68 71.68v123.904c0 39.5264-32.1536 71.68-71.68 71.68z m-134.144-61.44H757.76c5.7344 0 10.24-4.5056 10.24-10.24V266.24c0-5.7344-4.5056-10.24-10.24-10.24h-123.904c-5.7344 0-10.24 4.5056-10.24 10.24v134.144z" fill="#FE76FF" p-id="1469"></path><path d="M413.0816 858.5216h-169.5744c-43.008 0-77.824-34.816-77.824-77.824v-169.5744c0-43.008 34.816-77.824 77.824-77.824h220.7744c14.7456 0 26.624 11.8784 26.624 26.624v220.7744c-0.2048 42.8032-35.0208 77.824-77.824 77.824z m-169.7792-272.1792c-13.5168 0-24.576 11.0592-24.576 24.576v169.5744c0 13.5168 11.0592 24.576 24.576 24.576h169.5744c13.5168 0 24.576-11.0592 24.576-24.576v-194.1504h-194.1504zM780.6976 858.5216h-169.5744c-43.008 0-77.824-34.816-77.824-77.824V559.7184c0-14.7456 11.8784-26.624 26.624-26.624h220.7744c43.008 0 77.824 34.816 77.824 77.824v169.5744c0 43.008-35.0208 78.0288-77.824 78.0288z m-194.3552-272.1792v194.1504c0 13.5168 11.0592 24.576 24.576 24.576h169.5744c13.5168 0 24.576-11.0592 24.576-24.576v-169.5744c0-13.5168-11.0592-24.576-24.576-24.576h-194.1504z" fill="#2F4072" p-id="1470"></path></svg>