<?xml version="1.0" standalone="no"?><!DOCTYPE svg PUBLIC "-//W3C//DTD SVG 1.1//EN" "http://www.w3.org/Graphics/SVG/1.1/DTD/svg11.dtd"><svg t="1577594065400" class="icon" viewBox="0 0 1024 1024" version="1.1" xmlns="http://www.w3.org/2000/svg" p-id="2069" xmlns:xlink="http://www.w3.org/1999/xlink" width="200" height="200"><defs><style type="text/css"></style></defs><path d="M617.6 953.6c-3.2 0-9.6 0-12.8-3.2L521.6 896l-83.2 51.2c-6.4 3.2-12.8 3.2-19.2 3.2-6.4 0-12.8-6.4-16-9.6L352 857.6l-96 12.8c-6.4 0-12.8 0-19.2-6.4s-9.6-9.6-9.6-16l-9.6-96-92.8-32c-6.4-3.2-9.6-6.4-12.8-12.8s-3.2-12.8 0-19.2l32-92.8-70.4-67.2c-3.2-3.2-6.4-9.6-6.4-16s3.2-12.8 6.4-16l70.4-67.2-32-92.8c-3.2-6.4-3.2-12.8 0-19.2s6.4-9.6 12.8-12.8l92.8-32 9.6-96c0-6.4 3.2-12.8 9.6-16 6.4-3.2 12.8-6.4 19.2-6.4l96 12.8 51.2-83.2c3.2-6.4 9.6-9.6 16-9.6s12.8 0 19.2 3.2L521.6 128l83.2-51.2c6.4-3.2 12.8-3.2 19.2-3.2 6.4 0 12.8 6.4 16 9.6l51.2 83.2 96-12.8c6.4 0 12.8 0 19.2 6.4 6.4 3.2 9.6 9.6 9.6 16l9.6 96 92.8 32c6.4 3.2 9.6 6.4 12.8 12.8s3.2 12.8 0 19.2l-32 92.8 70.4 67.2c3.2 3.2 6.4 9.6 6.4 16s-3.2 12.8-6.4 16L896 598.4l32 92.8c3.2 6.4 3.2 12.8 0 19.2s-6.4 9.6-12.8 12.8l-92.8 32-9.6 96c0 6.4-3.2 12.8-9.6 16-6.4 3.2-12.8 6.4-19.2 6.4l-96-12.8-51.2 83.2c-3.2 6.4-9.6 9.6-16 9.6 0-3.2 0 0-3.2 0z m-249.6-144c9.6 0 16 3.2 19.2 12.8l48 73.6 73.6-48c6.4-6.4 19.2-6.4 25.6 0L608 896l48-73.6c6.4-6.4 12.8-12.8 22.4-9.6l86.4 9.6 9.6-86.4c0-9.6 6.4-16 16-19.2l83.2-28.8-28.8-83.2c-3.2-9.6 0-19.2 6.4-25.6l64-60.8-64-60.8c-6.4-6.4-9.6-16-6.4-25.6l28.8-83.2-83.2-28.8c-9.6-3.2-16-9.6-16-19.2l-6.4-96-86.4 9.6c-9.6 0-19.2-3.2-22.4-9.6L611.2 128l-73.6 48c-6.4 6.4-19.2 6.4-25.6 0L435.2 128l-48 73.6c-6.4 6.4-12.8 12.8-22.4 9.6l-86.4-6.4-9.6 89.6c0 9.6-6.4 16-16 19.2l-83.2 28.8 28.8 83.2c3.2 9.6 0 19.2-6.4 25.6L128 512l64 60.8c6.4 6.4 9.6 16 6.4 25.6l-28.8 83.2 83.2 28.8c9.6 3.2 16 9.6 16 19.2l9.6 86.4 89.6-6.4z" fill="#5F27CD" p-id="2070"></path><path d="M652.8 694.4c-32 0-60.8-19.2-73.6-51.2-16-41.6 3.2-86.4 44.8-102.4 41.6-16 86.4 3.2 102.4 44.8 16 41.6-3.2 86.4-44.8 102.4-6.4 6.4-16 6.4-28.8 6.4z m0-112c-3.2 0-9.6 0-12.8 3.2-16 6.4-25.6 25.6-16 41.6 6.4 16 25.6 25.6 41.6 16 16-6.4 25.6-25.6 16-41.6-3.2-9.6-16-19.2-28.8-19.2zM371.2 489.6c-32 0-60.8-19.2-73.6-51.2-16-41.6 3.2-86.4 44.8-102.4 41.6-16 86.4 3.2 102.4 44.8s-3.2 86.4-44.8 102.4c-9.6 3.2-19.2 6.4-28.8 6.4z m-32-67.2c6.4 16 25.6 25.6 41.6 16 16-6.4 25.6-25.6 16-41.6-6.4-16-25.6-25.6-41.6-16-12.8 6.4-22.4 22.4-16 41.6zM400 665.6c-6.4 0-9.6-3.2-16-6.4-9.6-9.6-12.8-22.4-3.2-35.2l224-259.2c9.6-9.6 22.4-9.6 35.2-3.2 9.6 9.6 12.8 22.4 3.2 35.2l-224 259.2c-6.4 6.4-12.8 9.6-19.2 9.6z" fill="#FF9F43" p-id="2071"></path></svg>